<svg width="22" height="22" viewBox="0 0 22 22" fill="none" xmlns="http://www.w3.org/2000/svg">
<path fill-rule="evenodd" clip-rule="evenodd" d="M14.4375 6.87508C14.4375 7.78676 14.0753 8.6611 13.4306 9.30575C12.786 9.95042 11.9116 10.3126 11 10.3126C10.0883 10.3126 9.21395 9.95042 8.56929 9.30575C7.92463 8.6611 7.56246 7.78676 7.56246 6.87508C7.56246 5.96341 7.92463 5.08906 8.56929 4.4444C9.21395 3.79975 10.0883 3.43758 11 3.43758C11.9116 3.43758 12.786 3.79975 13.4306 4.4444C14.0753 5.08906 14.4375 5.96341 14.4375 6.87508ZM14.5213 11.1005C15.3894 10.3767 16.0134 9.40313 16.3086 8.31215C16.6036 7.22116 16.5554 6.06576 16.1705 5.00313C15.7857 3.94051 15.0828 3.02224 14.1575 2.37325C13.2322 1.72428 12.1295 1.37612 10.9993 1.37612C9.8691 1.37612 8.76635 1.72428 7.84107 2.37325C6.91579 3.02224 6.21289 3.94051 5.82803 5.00313C5.44315 6.06576 5.39497 7.22116 5.69006 8.31215C5.98515 9.40313 6.60916 10.3767 7.47721 11.1005C6.12365 11.7404 4.96959 12.7364 4.13858 13.9818C3.30757 15.2272 2.8309 16.6751 2.75959 18.1707C2.75296 18.4402 2.8521 18.7016 3.0358 18.8988C3.21949 19.0961 3.47312 19.2136 3.7424 19.2262C4.01166 19.2388 4.27516 19.1454 4.47644 18.9661C4.67773 18.7868 4.80082 18.5359 4.81934 18.267C4.8943 16.6781 5.5782 15.1793 6.72909 14.0815C7.87997 12.9836 9.40942 12.3711 11 12.3711C12.5905 12.3711 14.12 12.9836 15.2709 14.0815C16.4217 15.1793 17.1057 16.6781 17.1806 18.267C17.184 18.4043 17.2147 18.5395 17.2711 18.6647C17.3274 18.79 17.4083 18.9028 17.5088 18.9963C17.6093 19.0899 17.7276 19.1625 17.8564 19.2098C17.9854 19.2571 18.1225 19.2781 18.2597 19.2717C18.3969 19.2653 18.5314 19.2315 18.6554 19.1724C18.7793 19.1133 18.8903 19.0301 18.9816 18.9275C19.073 18.8249 19.1429 18.7052 19.1873 18.5752C19.2318 18.4453 19.2498 18.3077 19.2403 18.1707C19.1688 16.675 18.692 15.227 17.8608 13.9815C17.0295 12.7361 15.8752 11.7402 14.5213 11.1005Z" fill="#24292E"/>
</svg>
