<svg width="24" height="24" viewBox="0 0 24 24" fill="none" xmlns="http://www.w3.org/2000/svg">
<g clip-path="url(#clip0)">
<path fill-rule="evenodd" clip-rule="evenodd" d="M14.1795 1.71412C12.8825 0.76196 11.1175 0.76196 9.82053 1.71412L8.54515 2.65041C8.33465 2.80495 8.08991 2.90633 7.8318 2.9459L6.2679 3.18567C4.67752 3.4295 3.4295 4.67752 3.18567 6.2679L2.9459 7.8318C2.90633 8.08991 2.80495 8.33465 2.65041 8.54515L1.71412 9.82053C0.76196 11.1175 0.76196 12.8825 1.71412 14.1795L2.65041 15.4548C2.80495 15.6653 2.90633 15.9101 2.9459 16.1682L3.18567 17.7321C3.4295 19.3224 4.67752 20.5705 6.2679 20.8143L7.8318 21.0541C8.08991 21.0937 8.33465 21.195 8.54515 21.3496L9.82053 22.2858C11.1175 23.238 12.8825 23.238 14.1795 22.2858L15.4548 21.3496C15.6653 21.195 15.9101 21.0937 16.1682 21.0541L17.7321 20.8143C19.3224 20.5705 20.5705 19.3224 20.8143 17.7321L21.0541 16.1682C21.0937 15.9101 21.195 15.6653 21.3496 15.4548L22.2858 14.1795C23.238 12.8825 23.238 11.1175 22.2858 9.82053L21.3496 8.54515C21.195 8.33465 21.0937 8.08991 21.0541 7.8318L20.8143 6.2679C20.5705 4.67752 19.3224 3.4295 17.7321 3.18567L16.1682 2.9459C15.9101 2.90633 15.6653 2.80495 15.4548 2.65041L14.1795 1.71412ZM11.0411 3.3767C11.6117 2.95777 12.3883 2.95777 12.9589 3.3767L14.2343 4.31299C14.7127 4.66422 15.2689 4.89463 15.8556 4.98457L17.4196 5.22434C18.1193 5.33162 18.6683 5.88073 18.7756 6.58046L19.0154 8.14435C19.1053 8.73102 19.3358 9.28726 19.6871 9.76571L20.6233 11.0411C21.0423 11.6117 21.0423 12.3883 20.6233 12.9589L19.6871 14.2343C19.3358 14.7127 19.1053 15.2689 19.0154 15.8556L18.7756 17.4196C18.6683 18.1193 18.1193 18.6683 17.4196 18.7756L15.8556 19.0154C15.2689 19.1053 14.7127 19.3358 14.2343 19.6871L12.9589 20.6233C12.3883 21.0423 11.6117 21.0423 11.0411 20.6233L9.76571 19.6871C9.28726 19.3358 8.73102 19.1053 8.14435 19.0154L6.58046 18.7756C5.88073 18.6683 5.33162 18.1193 5.22434 17.4196L4.98457 15.8556C4.89463 15.2689 4.66422 14.7127 4.31299 14.2343L3.3767 12.9589C2.95777 12.3883 2.95777 11.6117 3.3767 11.0411L4.31299 9.76569C4.66422 9.28726 4.89463 8.73102 4.98457 8.14435L5.22434 6.58046C5.33162 5.88073 5.88073 5.33162 6.58046 5.22434L8.14435 4.98457C8.73102 4.89463 9.28726 4.66422 9.76569 4.31299L11.0411 3.3767ZM16.5104 10.323C16.9131 9.92023 16.9131 9.26727 16.5104 8.86455C16.1077 8.46182 15.4548 8.46182 15.0521 8.86455L10.625 13.2916L8.94795 11.6145C8.54523 11.2118 7.89227 11.2118 7.48955 11.6145C7.08682 12.0173 7.08682 12.6702 7.48955 13.073L9.8958 15.4792C10.2985 15.8819 10.9515 15.8819 11.3542 15.4792L16.5104 10.323Z" fill="#24292E"/>
</g>
<defs>
<clipPath id="clip0">
<rect width="22" height="22" fill="white" transform="translate(1 1)"/>
</clipPath>
</defs>
</svg>
