<svg width="118" height="60" viewBox="0 0 118 60" fill="none" xmlns="http://www.w3.org/2000/svg">
<path d="M5.53988 27.9124C7.2991 26.1632 9.38985 24.7759 11.692 23.8303C13.9941 22.8846 16.4621 22.3993 18.9542 22.4021H37.7957C39.1959 16.054 42.7442 10.3712 47.8517 6.29643C52.9593 2.22168 59.3192 0 65.8761 0C72.4331 0 78.7929 2.22168 83.9005 6.29643C89.0081 10.3712 92.5564 16.054 93.9566 22.4021H99.0254C104.056 22.4048 108.88 24.3861 112.438 27.9109C115.995 31.4356 117.996 36.2156 118 41.2011C117.997 46.1869 115.997 50.9677 112.439 54.4927C108.881 58.0178 104.056 59.9987 99.0254 60H18.944C13.9223 59.992 9.10848 58.0114 5.55757 54.4925C2.00666 50.9735 0.00822832 46.203 0.000104707 41.2264C-0.00819464 38.7548 0.476954 36.306 1.42772 34.021C2.37849 31.7359 3.77606 29.6599 5.53988 27.9124Z" fill="#DCEDFD"/>
</svg>
