<svg width="51" height="27" viewBox="0 0 51 27" fill="none" xmlns="http://www.w3.org/2000/svg">
<path d="M48.3007 12.0968C47.5453 11.3396 46.6477 10.7391 45.6594 10.3299C44.6712 9.92074 43.6118 9.7109 42.5422 9.71247H34.439C33.8392 6.96068 32.3161 4.49685 30.1228 2.7301C27.9295 0.963357 25.1978 0 22.3814 0C19.565 0 16.8333 0.963357 14.64 2.7301C12.4466 4.49685 10.9236 6.96068 10.3237 9.71247H8.14762C7.07777 9.71216 6.01834 9.92262 5.02984 10.3318C4.04134 10.741 3.14313 11.3409 2.38653 12.0973C1.62992 12.8537 1.02974 13.7518 0.620257 14.7401C0.210773 15.7285 2.92454e-07 16.7879 3.36599e-07 17.8577C-0.000307293 18.9277 0.210253 19.9872 0.619629 20.9757C1.02901 21.9642 1.62917 22.8624 2.38584 23.6188C3.14251 24.3753 4.04084 24.9752 5.02948 25.3843C6.01812 25.7934 7.07768 26.0036 8.14762 26.003H42.5445C44.7048 26.003 46.7766 25.1449 48.3041 23.6173C49.8316 22.0898 50.6898 20.018 50.6898 17.8577C50.6907 16.7875 50.4801 15.7276 50.0701 14.7389C49.6601 13.7503 49.0588 12.8524 48.3007 12.0968Z" fill="#DCEDFD"/>
</svg>
